inDegrees=no
num_controls=7
num_derivatives=13
num_iterations=198
num_multipliers=7
num_parameters=0
num_slacks=7
num_states=26
objective=6.071006
objective_accelerations=0.645377
objective_balance=0.029483
objective_effort=0.620337
objective_height=4.681381
objective_ligament=0.094428
solver_duration=2175.558582
status=Solve_Succeeded
success=true
DataType=double
version=3
OpenSimVersion=4.4-2022-07-23-0e9fedc
endheader
time	/jointset/ground_pelvis/pelvis_tilt/value	/jointset/ground_pelvis/pelvis_tx/value	/jointset/ground_pelvis/pelvis_ty/value	/jointset/hip_l/hip_flexion_l/value	/jointset/hip_l/hip_adduction_l/value	/jointset/hip_l/hip_rotation_l/value	/jointset/back/lumbar_extension/value	/jointset/patellofemoral_l/patellar_flexion_l/value	/jointset/knee_l/knee_flexion_l/value	/jointset/knee_l/knee_adduction_l/value	/jointset/knee_l/knee_rotation_l/value	/jointset/ankle_l/ankle_angle_l/value	/jointset/subtalar_l/subtalar_angle_l/value	/jointset/ground_pelvis/pelvis_tilt/speed	/jointset/ground_pelvis/pelvis_tx/speed	/jointset/ground_pelvis/pelvis_ty/speed	/jointset/hip_l/hip_flexion_l/speed	/jointset/hip_l/hip_adduction_l/speed	/jointset/hip_l/hip_rotation_l/speed	/jointset/back/lumbar_extension/speed	/jointset/patellofemoral_l/patellar_flexion_l/speed	/jointset/knee_l/knee_flexion_l/speed	/jointset/knee_l/knee_adduction_l/speed	/jointset/knee_l/knee_rotation_l/speed	/jointset/ankle_l/ankle_angle_l/speed	/jointset/subtalar_l/subtalar_angle_l/speed	/forceset/tau_hip_flexion_l	/forceset/tau_hip_adduction_l	/forceset/tau_hip_rotation_l	/forceset/tau_knee_flexion_l	/forceset/tau_ankle_angle_l	/forceset/tau_subtalar_angle_l	/forceset/tau_lumbar_extension	lambda_cid13_p0	lambda_cid13_p1	lambda_cid13_p2	lambda_cid13_p3	lambda_cid13_p4	lambda_cid13_p5	lambda_cid14_p0	/jointset/ground_pelvis/pelvis_tilt/accel	/jointset/ground_pelvis/pelvis_tx/accel	/jointset/ground_pelvis/pelvis_ty/accel	/jointset/hip_l/hip_flexion_l/accel	/jointset/hip_l/hip_adduction_l/accel	/jointset/hip_l/hip_rotation_l/accel	/jointset/back/lumbar_extension/accel	/jointset/patellofemoral_l/patellar_flexion_l/accel	/jointset/knee_l/knee_flexion_l/accel	/jointset/knee_l/knee_adduction_l/accel	/jointset/knee_l/knee_rotation_l/accel	/jointset/ankle_l/ankle_angle_l/accel	/jointset/subtalar_l/subtalar_angle_l/accel	gamma_cid13_p0	gamma_cid13_p1	gamma_cid13_p2	gamma_cid13_p3	gamma_cid13_p4	gamma_cid13_p5	gamma_cid14_p0
0	-0.03657205785715501	0.05656837534257257	0.920346028205945	0.3085811930696054	-0.2955698512574128	-0.300038154584631	-0.3879500408040475	0.2499276582270842	0.249927658227084	-0.1745329251994329	-0.1729938364805381	-0.0008036543073733089	0.0004906720376640082	0	0	0	0	0	0	0	0	0	0	0	0	0	0.07817687002621526	-0.02730519520065986	-0.01630192817187268	-0.2134590378414409	0.1197614948820921	-0.01937421783439889	-0.01322886908249244	-5.209151201425404	6.182289516158281	2.151291195986765	43.01398645530607	-610.3102663241266	-63.91543227311254	-23.14481265108573	-2.36608119564743	-2.997199335185612	-1.150051129347674	11.96679786308419	-0.7612578684207437	3.148332824947595	-7.911108066280929	9.195093792394079	9.195093792395637	1.354550315854408	-0.2050629494892972	0.05683056727848053	-0.8080439070629509	1.871252302142021e-08	1.65067196626754e-07	3.778644344658135e-08	-2.473090746947804e-08	1.904815767707574e-07	6.131431162789476e-08	5.747437237858507e-09
0.01	-0.03668504945796398	0.05642069245429545	0.9202897401555	0.3091652839096872	-0.2956082940417739	-0.2998805581769929	-0.3883443299673627	0.2503783534676742	0.2503783534676727	-0.1744691597560353	-0.1730012672406427	-0.0008016659759632602	0.0004495794914678347	-0.0224796393119386	-0.02934161973387221	-0.01121179402136825	0.1161879234800743	-0.007647122383473561	0.0313639439211132	-0.07829019192038213	0.08971447132476851	0.08971447132477381	0.01269143801911436	-0.001476888683540801	0.0004674759591170866	-0.008149460347472538	0.07210659719674473	-0.03569216609287579	-0.01567274915533947	-0.2099594643042919	0.1150297836873504	-0.008321643956718743	-0.007114562917998548	-6.412729836273	1.669785471246368	2.782880482694742	41.37259911442897	-613.3533101749763	-72.81311645542016	-23.15024521950893	-2.171111919896134	-2.873404550446652	-1.099833032071893	11.35024786700174	-0.7602523702398816	3.10712584604115	-7.702828643521434	8.795936134057463	8.795936134057285	1.216980453284976	-0.1176103225449973	0.05218350065683507	-0.8080707752454149	-9.864461282144242e-09	1.572002820430157e-07	1.085498941279094e-07	4.046001986552292e-09	5.790338264321646e-08	2.473500822690264e-08	-3.157482748334861e-09
0.02	-0.0370192787760783	0.05598544111708788	0.9201227162661333	0.3108923456398774	-0.2957219706393557	-0.2994139821960745	-0.3895044918276026	0.2517134558878192	0.2517134558878188	-0.1742803638990703	-0.1730231885865351	-0.0007929074068763784	0.0003290576064657337	-0.0442475434610396	-0.05751368978609195	-0.02214716778435106	0.2285941780214562	-0.01504676264411641	0.06179591465614499	-0.1531745393849473	0.1768814359111062	0.1768814359111091	0.02500447237203013	-0.002898117157422659	0.001354047535374515	-0.01588586776118541	0.06603632436728542	-0.04407913698509024	-0.01504357013879953	-0.2064598907671367	0.1102980724926114	0.002730929920963816	-0.00100025675349851	-7.543359583300543	-2.853037599521395	3.413310871710415	39.71008711716212	-615.2405073330397	-81.62585114006677	-23.16622186362718	-2.223734163079908	-2.763289398855122	-1.094767077670588	11.21046407534572	-0.7117614438546008	2.961938187731312	-7.229939175117542	8.685592444707916	8.685592444707938	1.278869582614691	-0.1939309075575089	0.1406496907065452	-0.7254333203110185	-3.844144558570869e-08	1.493333674592774e-07	1.793133448092375e-07	3.282291144258263e-08	-7.467481148432444e-08	-1.184429517408947e-08	-1.206240273452823e-08
0.03	-0.03756805772637085	0.0552743006893906	0.9198473962257925	0.313725316808109	-0.2959082175317393	-0.2986479196416749	-0.3913962535302599	0.2539076796035732	0.2539076796035766	-0.1739701465756964	-0.1730591120978435	-0.0007732579484741193	0.0001334105247811051	-0.06539816159115219	-0.08452080468340611	-0.03289775288478312	0.3374015257114361	-0.02215337700316893	0.0912828788134485	-0.2246277848416323	0.261551797635635	0.261551797635632	0.03696854328887131	-0.004250753058117121	0.00264087441531594	-0.02316839240145732	0.05957550644897491	-0.0383758054574885	-0.01451848169228484	-0.2030684043654195	0.1103798107300369	8.083390325111777e-05	0.005150966289525251	-7.625647299764436	-1.729583319778488	3.282050859921531	38.10252716029873	-616.637988865766	-78.33156822714852	-23.19205498425003	-2.044218752495977	-2.640377193832693	-1.062356587009431	10.62608278540884	-0.7027627108792968	2.92199493563185	-7.020514785210564	8.296034044123992	8.296034044123044	1.144646289939997	-0.1005268285988222	0.1324567264895019	-0.7184330120751111	-5.912044671897829e-08	1.414041977481445e-07	2.289527899168166e-07	5.473050835046558e-08	-1.74244697204584e-07	-3.860551914112635e-08	-1.812524868652458e-08
0.04	-0.03832504148086831	0.05429889818098754	0.9194651398622915	0.3176284039871565	-0.296164060823503	-0.2975910035645216	-0.3939860471983375	0.2569362621381359	0.2569362621381366	-0.1735423944544086	-0.1731074813476085	-0.0007387887133021232	-0.0001328159985442096	-0.08588850430202609	-0.1103661059272473	-0.043534432416409	0.442617380184804	-0.02896604252016965	0.1199666192068315	-0.2927809324689807	0.3437531996721092	0.3437531996720978	0.04851143195455916	-0.005387264849748377	0.004318002889319684	-0.0300017560893226	0.0531146885306567	-0.03267247392988862	-0.01399339324580164	-0.199676917963702	0.110461548967461	-0.002569262114463591	0.01130218933254466	-7.641551323383582	-0.6151339258102347	3.14923478253586	36.46682230442256	-616.9983493961398	-74.95678601341054	-23.2268721621154	-2.091679079232165	-2.530926668160526	-1.071985963909352	10.4921654320233	-0.6529716754442422	2.801293434947212	-6.56991960925023	8.191800507096996	8.191800507096513	1.194633132384029	-0.1507060857448684	0.2187100095190055	-0.6356011298296929	-7.963660283842738e-08	1.334737444261375e-07	2.781566885177206e-07	7.649646994807745e-08	-2.73133999246343e-07	-6.5164308480659e-08	-2.412949517389833e-08
0.05	-0.03928401282836867	0.05307086048639692	0.9189768342508701	0.3225663547085334	-0.2964863884363541	-0.2962517625259926	-0.3972406501640064	0.2607747634261354	0.2607747634261331	-0.1730010674510256	-0.1731665622326843	-0.0006855991946160242	-0.0004649471552250286	-0.1057917723015002	-0.135045519469676	-0.05412560079643576	0.5443714227610283	-0.03544500640025021	0.1477314522686771	-0.3576140241623847	0.4235305743682473	0.4235305743682375	0.05967366914625919	-0.006400651326317807	0.0063769090541534	-0.0363466527810573	0.04634015571466771	-0.03260355520064452	-0.013378597711109	-0.1966431031172124	0.1091251422112079	9.567329563866554e-05	0.01753130918485979	-7.901582821226983	-1.711399656290645	3.306206689347203	34.79467631580446	-617.1978953668449	-76.21886206461613	-23.2695669612059	-1.922555035965624	-2.407046193931528	-1.052574340235318	9.926812921806169	-0.6372304524388633	2.741517865669786	-6.361158474017507	7.80823829141719	7.808238291417746	1.065017070595053	-0.07236903332372947	0.208032959044201	-0.6223134690195032	-9.368440061684182e-08	1.051633374434269e-07	3.10045049227785e-07	9.057382527349067e-08	-3.456391640008375e-07	-8.703189591231489e-08	-3.007088564715937e-08
0.06	-0.04043859773099584	0.05160190915705252	0.918382638542611	0.328503803705949	-0.2968718800296358	-0.2946393852320717	-0.4011278149515361	0.2653985449292015	0.2653985449292012	-0.172350518464119	-0.1732349198034733	-0.0006101102064658547	-0.0008582031848580228	-0.1250112153273965	-0.1585488328780048	-0.06471245178390544	0.6425170353926195	-0.04159883860628662	0.1745938702851841	-0.4192932968410693	0.500809242686184	0.5008092426861789	0.07035582865924186	-0.007242601991316787	0.008777896782132952	-0.04222673067975765	0.03956562289867487	-0.03253463647140023	-0.01276380217638471	-0.1936092882707302	0.1077887354549535	0.002760608705740243	0.02376042903717301	-8.104086552537693	-2.815205598945331	3.461487561027351	33.09223138557719	-616.4919897499249	-77.40666772011015	-23.31892424460589	-1.954914084516583	-2.295706641340548	-1.071122485397937	9.770479443096677	-0.5879453406354129	2.620810425879495	-5.93915580630635	7.692059231456732	7.692059231456835	1.098617596640557	-0.1164189234307784	0.2871263221481697	-0.5426373712228224	-1.074598464651074e-07	7.599482714868681e-08	3.412043346582352e-07	1.043274498084955e-07	-4.170334177116577e-07	-1.087019590531128e-07	-3.600962955140515e-08
0.07000000000000001	-0.04178242731959711	0.04990377586969457	0.9176823787476982	0.3354055841132236	-0.2973171356838571	-0.2927631825669393	-0.405615702447463	0.270783062408078	0.2707830624080743	-0.1715952416990977	-0.1733111585901444	-0.0005088498586706175	-0.001307762604651295	-0.1436426895753064	-0.1808827884042383	-0.07535248503487949	0.7372519207778772	-0.04739233366781239	0.200501137892991	-0.477776867329558	0.5756821119826127	0.575682111982553	0.08061635756067995	-0.007968998892440916	0.01152530626606286	-0.04760402760673031	0.03245909851533703	-0.0307466750713867	-0.01214671844613616	-0.1908322569253314	0.1072504206181353	0.003743134789570871	0.03011875475311371	-8.120029129043571	-3.231756764901544	3.519480690083497	31.42595153180176	-615.8207584480557	-77.08174499099752	-23.37355538335417	-1.800462573685425	-2.172963547672155	-1.062474692449029	9.236914641154385	-0.5660965541738283	2.553803089296824	-5.72685741790911	7.323086886728635	7.323086886720399	0.9773332592150237	-0.04526637591749196	0.2762166208697847	-0.5231575658867045	-1.156315263215422e-07	4.173918644618396e-08	3.572013733870093e-07	1.123394713398705e-07	-4.621527430131125e-07	-1.2344615474227e-07	-4.069014225481781e-08
0.08	-0.04330921134642889	0.0479881583191928	0.9168753124307752	0.3432370976853338	-0.2978185352817462	-0.2906322835935158	-0.4106732055978325	0.2769039458015137	0.2769039458015117	-0.1707398471005978	-0.1733935646063251	-0.0003785817441652055	-0.001808671336204737	-0.1616021029735046	-0.2020456855067692	-0.08607375618592736	0.828463668359698	-0.05282762733984502	0.2255331319434188	-0.5332164277296058	0.6480824255987498	0.6480824255986352	0.09037939535490166	-0.008476047892135106	0.01457945012416803	-0.0524965930317916	0.02535257413200044	-0.02895871367137276	-0.01152963471585343	-0.1880552255799366	0.106712105781317	0.004725660873401453	0.03647708046905514	-8.086333566259794	-3.654435051011393	3.575521646705562	29.72599800102424	-614.3758094671269	-76.6898430920113	-23.43197701719174	-1.820501914574213	-2.061494956600017	-1.087370065412703	9.065851882409305	-0.5163050627367851	2.445755714403662	-5.330353788618171	7.197548095398464	7.197548095398453	0.9991193751972838	-0.07254934314479081	0.3484731969832185	-0.4456910708405486	-1.234416728881815e-07	7.155343781890039e-09	3.722202026511591e-07	1.199810668710113e-07	-5.055769116429953e-07	-1.377435202732569e-07	-4.528947875172509e-08
